<svg xmlns="http://www.w3.org/2000/svg" viewBox="0 0 104 96" width="104" height="96">
  <defs>
    <linearGradient id="shell" x1="0" y1="0" x2="0" y2="1">
      <stop offset="0%" stop-color="#f2fff6"/><stop offset="100%" stop-color="#a8ecc4"/>
    </linearGradient>
    <linearGradient id="liq" x1="0" y1="0" x2="0" y2="1">
      <stop offset="0%" stop-color="#b5f7cd"/><stop offset="100%" stop-color="#3fcf8c"/>
    </linearGradient>
    <clipPath id="body">
      <path d="M6 82C6 44 24 16 52 16C80 16 98 44 98 82C98 88 88 93 52 93C16 93 6 88 6 82Z"/>
    </clipPath>
  </defs>

  <path d="M6 82C6 44 24 16 52 16C80 16 98 44 98 82C98 88 88 93 52 93C16 93 6 88 6 82Z"
        fill="url(#shell)" fill-opacity=".92" stroke="#2f8f5f" stroke-width="2.4"/>

  <g clip-path="url(#body)">
    <ellipse cx="52" cy="47" rx="58" ry="4.5" fill="#b5f7cd"/>
    <rect x="-6" y="47" width="116" height="60" fill="url(#liq)"/>
    <ellipse cx="52" cy="93" rx="46" ry="16" fill="#12684a" opacity=".26"/>
  </g>

  <ellipse cx="33" cy="37" rx="13" ry="8.5" fill="#fff" opacity=".55" transform="rotate(-24 33 37)"/>
  <circle cx="47" cy="27" r="3.4" fill="#fff" opacity=".8"/>

  <ellipse cx="24" cy="65" rx="7.5" ry="4.2" fill="#ff92a8" opacity=".9"/>
  <ellipse cx="80" cy="65" rx="7.5" ry="4.2" fill="#ff92a8" opacity=".9"/>

  <!-- 놀란 듯 웃는 ∪ 눈 -->
  <path d="M31 57q6-8 12 0" fill="none" stroke="#1f544c" stroke-width="3" stroke-linecap="round"/>
  <path d="M61 57q6-8 12 0" fill="none" stroke="#1f544c" stroke-width="3" stroke-linecap="round"/>

  <!-- 벌어진 입 -->
  <ellipse cx="52" cy="71" rx="5" ry="4" fill="#1f544c"/>
</svg>
